<svg width="26" height="26" viewBox="0 0 26 26" fill="none" xmlns="http://www.w3.org/2000/svg">
<path d="M26 4.875V17.875C26 18.7728 25.2728 19.5 24.375 19.5H4.875C3.9772 19.5 3.25 18.7728 3.25 17.875V4.875C3.25 3.9772 3.9772 3.25 4.875 3.25H24.375C25.2728 3.25 26 3.9772 26 4.875Z" fill="#2668ED"/>
<path d="M24.375 6.5V19.5H3.25V4.875H22.75C23.6478 4.875 24.375 5.6022 24.375 6.5Z" fill="#1458E0"/>
<path d="M21.125 22.75H1.625C0.727203 22.75 0 22.0228 0 21.125V8.125C0 7.2272 0.727203 6.5 1.625 6.5H21.125C22.0228 6.5 22.75 7.2272 22.75 8.125V21.125C22.75 22.0228 22.0228 22.75 21.125 22.75Z" fill="#40A2E7"/>
<path d="M0 10.5625H22.75V13.8125H0V10.5625Z" fill="#57565C"/>
<path d="M3.25 17.875H5.6875V19.5H3.25V17.875Z" fill="white"/>
<path d="M7.3125 17.875H10.5625V19.5H7.3125V17.875Z" fill="white"/>
<path d="M12.1875 17.875H15.4375V19.5H12.1875V17.875Z" fill="white"/>
<path d="M17.0625 17.875H19.5V19.5H17.0625V17.875Z" fill="white"/>
</svg>
