<?xml version="1.0" encoding="utf-8"?>
<!-- Generator: Adobe Illustrator 24.0.0, SVG Export Plug-In . SVG Version: 6.00 Build 0)  -->
<svg version="1.1" id="Calque_1" xmlns="http://www.w3.org/2000/svg" xmlns:xlink="http://www.w3.org/1999/xlink" x="0px" y="0px"
	 viewBox="0 0 150 112" style="enable-background:new 0 0 150 112;" xml:space="preserve">
<style type="text/css">
	.st0{fill:#72CA7B;}
	.st1{fill:#FFFFFF;}
</style>
<path class="st0" d="M0,10C0,4.5,4.5,0,10,0h130c5.5,0,10,4.5,10,10v102H0V10z"/>
<path class="st1" d="M44.9,57.3h-7.9v5.3h9.2V66H33V46h13.3v3.3h-9.2v4.7h7.9V57.3z M56.8,52.9l3.7-6.9h4.7l-5.8,9.9l5.9,10h-4.8
	l-3.8-7L53,66h-4.8l5.9-10L48.4,46h4.7L56.8,52.9z M83.8,59.3c-0.2,2.1-0.9,3.8-2.4,5.1c-1.4,1.2-3.3,1.8-5.6,1.8
	c-2.6,0-4.6-0.9-6-2.6c-1.5-1.7-2.2-4.1-2.2-7.1v-1.2c0-1.9,0.3-3.6,1-5.1c0.7-1.5,1.6-2.6,2.9-3.3c1.3-0.8,2.7-1.2,4.4-1.2
	c2.3,0,4.1,0.6,5.6,1.8c1.4,1.2,2.2,3,2.4,5.2h-4.1c-0.1-1.3-0.5-2.2-1.1-2.8c-0.6-0.6-1.5-0.9-2.8-0.9c-1.4,0-2.4,0.5-3.1,1.5
	c-0.7,1-1,2.5-1,4.6v1.5c0,2.2,0.3,3.7,1,4.7c0.7,1,1.7,1.5,3.1,1.5c1.3,0,2.2-0.3,2.8-0.9c0.6-0.6,1-1.5,1.1-2.7H83.8z M99.5,57.3
	h-7.9v5.3h9.2V66H87.5V46h13.3v3.3h-9.2v4.7h7.9V57.3z M108.3,62.7h8.7V66h-12.8V46h4.1V62.7z"/>
</svg>
