<?xml version="1.0" encoding="utf-8"?>
<!-- Generator: Adobe Illustrator 25.0.1, SVG Export Plug-In . SVG Version: 6.00 Build 0)  -->
<svg version="1.1" id="Calque_1" xmlns="http://www.w3.org/2000/svg" xmlns:xlink="http://www.w3.org/1999/xlink" x="0px" y="0px"
	 viewBox="0 0 35 39" style="enable-background:new 0 0 35 39;" xml:space="preserve">
<style type="text/css">
	.st0{fill:#FF8577;}
	.st1{fill:#FFFFFF;}
	.st2{fill:#E96253;}
</style>
<path class="st0" d="M2.9,0h20.7l11,10.9v25.6c0,1.3-1.1,2.4-2.4,2.4H2.9c-1.3,0-2.4-1.1-2.4-2.4V2.4C0.4,1.1,1.5,0,2.9,0z"/>
<path class="st1" d="M7,25.6v-7.2h2.3c0.9,0,1.5,0,1.7,0.1c0.4,0.1,0.8,0.3,1,0.7c0.3,0.4,0.4,0.8,0.4,1.4c0,0.4-0.1,0.8-0.2,1.1
	c-0.2,0.3-0.4,0.5-0.6,0.7c-0.2,0.2-0.5,0.3-0.7,0.3c-0.3,0.1-0.8,0.1-1.5,0.1H8.5v2.7H7z M8.5,19.6v2h0.8c0.6,0,1,0,1.1-0.1
	c0.2-0.1,0.3-0.2,0.4-0.4C11,21,11,20.8,11,20.6c0-0.3-0.1-0.5-0.2-0.6c-0.2-0.2-0.3-0.3-0.6-0.3c-0.2,0-0.5,0-1,0H8.5z M14.8,18.4
	h2.6c0.6,0,1,0,1.4,0.1c0.4,0.1,0.8,0.3,1.1,0.7c0.3,0.3,0.5,0.7,0.7,1.2c0.2,0.5,0.2,1,0.2,1.7c0,0.6-0.1,1.1-0.2,1.5
	c-0.2,0.5-0.4,0.9-0.8,1.3c-0.3,0.2-0.6,0.4-1,0.6c-0.3,0.1-0.7,0.2-1.3,0.2h-2.7V18.4z M16.2,19.6v4.7h1.1c0.4,0,0.7,0,0.9-0.1
	c0.2-0.1,0.4-0.2,0.6-0.3c0.2-0.1,0.3-0.4,0.4-0.7c0.1-0.3,0.1-0.8,0.1-1.3c0-0.6,0-1-0.1-1.3c-0.1-0.3-0.2-0.5-0.4-0.7
	c-0.2-0.2-0.4-0.3-0.7-0.3c-0.2,0-0.6-0.1-1.2-0.1H16.2z M23.1,25.6v-7.2H28v1.2h-3.5v1.7h3v1.2h-3v3H23.1z"/>
<path class="st2" d="M34.6,10.9h-8.5c-1.3,0-2.4-1.1-2.4-2.4V0L34.6,10.9z"/>
</svg>
