<?xml version="1.0" encoding="utf-8"?>
<!-- Generator: Adobe Illustrator 24.0.0, SVG Export Plug-In . SVG Version: 6.00 Build 0)  -->
<svg version="1.1" id="Calque_1" xmlns="http://www.w3.org/2000/svg" xmlns:xlink="http://www.w3.org/1999/xlink" x="0px" y="0px"
	 viewBox="0 0 35 39" style="enable-background:new 0 0 35 39;" xml:space="preserve">
<style type="text/css">
	.st0{fill:#72CA7B;}
	.st1{fill:#5E9A79;}
	.st2{fill:#FFFFFF;}
</style>
<g>
	<path class="st0" d="M2.9,0h20.7l11,10.9v25.6c0,1.3-1.1,2.4-2.4,2.4H2.9c-1.3,0-2.4-1.1-2.4-2.4V2.4C0.4,1.1,1.5,0,2.9,0z"/>
	<path class="st1" d="M34.6,10.9h-8.5c-1.3,0-2.4-1.1-2.4-2.4V0L34.6,10.9z"/>
	<path class="st2" d="M6.9,26.1l2.4-3.7l-2.2-3.4h1.7l1.4,2.3l1.4-2.3h1.7l-2.2,3.5l2.4,3.7h-1.7l-1.6-2.5l-1.6,2.5H6.9z M15.5,26.1
		V19h1.4v5.9h3.6v1.2H15.5z M22.2,23.7l1.4-0.1c0.1,0.5,0.3,0.8,0.5,1c0.3,0.2,0.6,0.3,1,0.3c0.5,0,0.8-0.1,1-0.3
		c0.2-0.2,0.4-0.4,0.4-0.7c0-0.2-0.1-0.3-0.2-0.4c-0.1-0.1-0.3-0.2-0.5-0.3c-0.2-0.1-0.6-0.2-1.2-0.3c-0.8-0.2-1.3-0.4-1.6-0.7
		c-0.4-0.4-0.7-0.9-0.7-1.4c0-0.4,0.1-0.7,0.3-1c0.2-0.3,0.5-0.6,0.9-0.7c0.4-0.2,0.9-0.2,1.4-0.2c0.9,0,1.6,0.2,2,0.6
		c0.5,0.4,0.7,0.9,0.7,1.6L26.4,21c-0.1-0.4-0.2-0.6-0.4-0.8c-0.2-0.2-0.5-0.2-0.9-0.2c-0.4,0-0.7,0.1-1,0.3
		c-0.2,0.1-0.2,0.3-0.2,0.4c0,0.2,0.1,0.3,0.2,0.4c0.2,0.2,0.6,0.3,1.3,0.5c0.7,0.2,1.2,0.3,1.6,0.5c0.3,0.2,0.6,0.4,0.8,0.7
		c0.2,0.3,0.3,0.7,0.3,1.1c0,0.4-0.1,0.8-0.3,1.2c-0.2,0.4-0.6,0.6-1,0.8c-0.4,0.2-0.9,0.3-1.6,0.3c-0.9,0-1.6-0.2-2.1-0.6
		C22.6,25.2,22.3,24.5,22.2,23.7z"/>
</g>
</svg>
