<svg width="20" height="20" viewBox="0 0 20 20" fill="none" xmlns="http://www.w3.org/2000/svg">
<path d="M16.7898 5.12819C17.0462 3.58975 16.7898 2.50001 15.9565 1.53843C15.059 0.512811 13.3282 0 11.2128 0H4.99491C4.54615 0 4.16158 0.320525 4.09746 0.769217L1.53333 17.1795C1.46921 17.5 1.72562 17.8205 2.04614 17.8205H5.8923L5.63589 19.4872C5.57177 19.7436 5.82818 20 6.08459 20H9.28969C9.67434 20 9.99479 19.7436 10.0589 19.3589V19.1667L10.7 15.3205L10.7641 15.1282C10.8282 14.7436 11.1487 14.4872 11.5333 14.4872H12.0461C15.1871 14.4872 17.6231 13.2051 18.3282 9.55127C18.6487 8.01284 18.4564 6.73074 17.6871 5.83335C17.4308 5.51283 17.1102 5.32047 16.7898 5.12819Z" fill="#26A6D1"/>
<path d="M16.7898 5.12819C17.0462 3.58975 16.7898 2.50001 15.9565 1.53843C15.059 0.512811 13.3282 0 11.2128 0H4.99491C4.54615 0 4.16158 0.320525 4.09746 0.769217L1.53333 17.1795C1.46921 17.5 1.72562 17.8205 2.04614 17.8205H5.8923L6.8538 11.7308V11.923C6.91792 11.4743 7.3025 11.1538 7.75126 11.1538H9.5461C13.1358 11.1538 15.9563 9.67944 16.7256 5.51283C16.7257 5.38459 16.7898 5.25642 16.7898 5.12819Z" fill="#324D5B"/>
<path d="M7.8795 5.12819C7.94361 4.87178 8.07178 4.67949 8.32819 4.55125C8.45643 4.48714 8.52047 4.48714 8.64871 4.48714H13.5205C14.0974 4.48714 14.6102 4.55126 15.123 4.61537C15.2513 4.61537 15.3795 4.67949 15.5077 4.67949C15.6359 4.67949 15.7641 4.74361 15.8923 4.80773C15.9565 4.80773 16.0206 4.87185 16.0846 4.87185C16.341 4.93597 16.5333 5.06414 16.7897 5.12826C17.0461 3.58982 16.7897 2.50008 15.9564 1.5385C15.059 0.512811 13.3282 0 11.2128 0H4.99491C4.54615 0 4.16158 0.320525 4.09746 0.769217L1.53333 17.1795C1.46921 17.5 1.72562 17.8205 2.04614 17.8205H5.8923L6.8538 11.7308L7.8795 5.12819Z" fill="#324D5B"/>
</svg>
