<?xml version="1.0" encoding="utf-8"?>
<!-- Generator: Adobe Illustrator 24.0.0, SVG Export Plug-In . SVG Version: 6.00 Build 0)  -->
<svg version="1.1" id="Calque_1" xmlns="http://www.w3.org/2000/svg" xmlns:xlink="http://www.w3.org/1999/xlink" x="0px" y="0px"
	 viewBox="0 0 150 112" style="enable-background:new 0 0 150 112;" xml:space="preserve">
<style type="text/css">
	.st0{fill:#FF8577;}
	.st1{fill:#FFFFFF;}
</style>
<path class="st0" d="M0,10C0,4.5,4.5,0,10,0h130c5.5,0,10,4.5,10,10v102H0V10z"/>
<path class="st1" d="M53.5,58.9v7h-4.1V46h7.8c1.5,0,2.8,0.3,3.9,0.8c1.1,0.5,2,1.3,2.6,2.3c0.6,1,0.9,2.1,0.9,3.4
	c0,2-0.7,3.5-2,4.6c-1.3,1.1-3.2,1.7-5.5,1.7H53.5z M53.5,55.6h3.7c1.1,0,1.9-0.3,2.5-0.8c0.6-0.5,0.9-1.2,0.9-2.2
	c0-1-0.3-1.8-0.9-2.4c-0.6-0.6-1.4-0.9-2.4-0.9h-3.8V55.6z M68.5,66V46h6.1c1.8,0,3.3,0.4,4.7,1.2c1.4,0.8,2.5,1.9,3.2,3.4
	c0.8,1.4,1.2,3.1,1.2,4.9v0.9c0,1.9-0.4,3.5-1.1,4.9c-0.8,1.4-1.8,2.6-3.2,3.3c-1.4,0.8-2.9,1.2-4.7,1.2H68.5z M72.6,49.4v13.3h2
	c1.6,0,2.8-0.5,3.7-1.6c0.8-1,1.3-2.5,1.3-4.5v-1.1c0-2-0.4-3.6-1.3-4.6c-0.8-1-2.1-1.6-3.7-1.6H72.6z M99.6,57.8h-7.9V66h-4.1V46
	h13v3.3h-8.9v5.1h7.9V57.8z"/>
</svg>
