<?xml version="1.0" encoding="utf-8"?>
<!-- Generator: Adobe Illustrator 24.0.0, SVG Export Plug-In . SVG Version: 6.00 Build 0)  -->
<svg version="1.1" id="Calque_1" xmlns="http://www.w3.org/2000/svg" xmlns:xlink="http://www.w3.org/1999/xlink" x="0px" y="0px"
	 viewBox="0 0 98 98" style="enable-background:new 0 0 98 98;" xml:space="preserve">
<style type="text/css">
	.st0{fill:#FFFFFF;}
	.st1{fill:#FFFDFD;}
</style>
<circle class="st0" cx="49" cy="49" r="49"/>
<path class="st1" fill="#FFFFFF" d="M49.1,14.7c9,0,16.2,7.3,16.2,16.2c0,9-7.3,16.2-16.2,16.2s-16.2-7.3-16.2-16.2C32.8,21.9,40.2,14.7,49.1,14.7z
	 M49.1,85.2c-8.9,0-17.1-3.3-23.4-8.6c-1.5-1.3-2.4-3.2-2.4-5.2c0-9.1,7.3-16.3,16.4-16.3h18.9c9.1,0,16.4,7.3,16.4,16.3
	c0,2-0.9,3.9-2.4,5.2C66.2,81.9,58,85.2,49.1,85.2z"/>
</svg>
