<svg width="177" height="103" viewBox="0 0 177 103" fill="none" xmlns="http://www.w3.org/2000/svg">
<path d="M106.27 77.2432C103.34 79.7334 100.513 81.4912 97.7881 82.5166C95.0928 83.542 92.1924 84.0547 89.0869 84.0547C83.96 84.0547 80.0195 82.8096 77.2656 80.3193C74.5117 77.7998 73.1348 74.5918 73.1348 70.6953C73.1348 68.4102 73.6475 66.3301 74.6729 64.4551C75.7275 62.5508 77.0898 61.0273 78.7598 59.8848C80.459 58.7422 82.3633 57.8779 84.4727 57.292C86.0254 56.8818 88.3691 56.4863 91.5039 56.1055C97.8906 55.3438 102.593 54.4355 105.61 53.3809C105.64 52.2969 105.654 51.6084 105.654 51.3154C105.654 48.0928 104.907 45.8223 103.413 44.5039C101.392 42.7168 98.3887 41.8232 94.4043 41.8232C90.6836 41.8232 87.9297 42.4824 86.1426 43.8008C84.3848 45.0898 83.0811 47.3896 82.2314 50.7002L74.4971 49.6455C75.2002 46.335 76.3574 43.6689 77.9688 41.6475C79.5801 39.5967 81.9092 38.0293 84.9561 36.9453C88.0029 35.832 91.5332 35.2754 95.5469 35.2754C99.5312 35.2754 102.769 35.7441 105.259 36.6816C107.749 37.6191 109.58 38.8057 110.752 40.2412C111.924 41.6475 112.744 43.4346 113.213 45.6025C113.477 46.9502 113.608 49.3818 113.608 52.8975V63.4443C113.608 70.7979 113.77 75.4561 114.092 77.4189C114.443 79.3525 115.117 81.2129 116.113 83H107.852C107.031 81.3594 106.504 79.4404 106.27 77.2432ZM105.61 59.5771C102.739 60.749 98.4326 61.7451 92.6904 62.5654C89.4385 63.0342 87.1387 63.5615 85.791 64.1475C84.4434 64.7334 83.4033 65.5977 82.6709 66.7402C81.9385 67.8535 81.5723 69.0986 81.5723 70.4756C81.5723 72.585 82.3633 74.3428 83.9453 75.749C85.5566 77.1553 87.9004 77.8584 90.9766 77.8584C94.0234 77.8584 96.7334 77.1992 99.1064 75.8809C101.479 74.5332 103.223 72.7021 104.336 70.3877C105.186 68.6006 105.61 65.9639 105.61 62.4775V59.5771ZM126.825 83V36.3301H133.944V43.4053C135.761 40.0947 137.431 37.9121 138.954 36.8574C140.507 35.8027 142.206 35.2754 144.052 35.2754C146.718 35.2754 149.428 36.125 152.182 37.8242L149.457 45.1631C147.523 44.0205 145.59 43.4492 143.656 43.4492C141.928 43.4492 140.375 43.9766 138.998 45.0312C137.621 46.0566 136.64 47.4922 136.054 49.3379C135.175 52.1504 134.735 55.2266 134.735 58.5664V83H126.825ZM175.154 75.9248L176.297 82.9121C174.07 83.3809 172.078 83.6152 170.32 83.6152C167.449 83.6152 165.223 83.1611 163.641 82.2529C162.059 81.3447 160.945 80.1582 160.301 78.6934C159.656 77.1992 159.334 74.0791 159.334 69.333V42.4824H153.533V36.3301H159.334V24.7725L167.2 20.0264V36.3301H175.154V42.4824H167.2V69.7725C167.2 72.0283 167.332 73.4785 167.596 74.123C167.889 74.7676 168.343 75.2803 168.958 75.6611C169.603 76.042 170.511 76.2324 171.683 76.2324C172.562 76.2324 173.719 76.1299 175.154 75.9248Z" fill="#FF8577"/>
<path d="M3.21484 69.3789L3.02837 68.1935L1.81941 68.3837L2.03332 69.5886L3.21484 69.3789ZM10.8633 68.1758L12.0517 68.0092L11.8823 66.8007L10.6768 66.9904L10.8633 68.1758ZM14.4297 75.2227L13.6588 76.1423L13.6654 76.1478L14.4297 75.2227ZM30.5859 75.5234L31.3542 76.4454L31.3631 76.4378L30.5859 75.5234ZM30.8867 66.2852L31.548 65.2838L31.5397 65.2784L30.8867 66.2852ZM22.9805 63.6641L22.6867 64.8275L22.6876 64.8278L22.9805 63.6641ZM11.1641 59.9688L10.6388 61.0477L10.6473 61.0518L10.6558 61.0558L11.1641 59.9688ZM6.17969 55.6289L5.1507 56.2463L5.15631 56.2557L5.16209 56.2649L6.17969 55.6289ZM5.87891 43.8555L4.82344 43.2845L4.82008 43.2908L5.87891 43.8555ZM9.70312 39.5156L10.4006 40.4921L10.4082 40.4867L10.4157 40.4811L9.70312 39.5156ZM14.6016 37.2812L14.9376 38.4333L14.9478 38.4302L14.6016 37.2812ZM30.7148 37.8828L30.2857 39.0034L30.2896 39.0049L30.7148 37.8828ZM36.7305 42.0938L35.7593 42.7986L35.7648 42.8061L36.7305 42.0938ZM39.3945 49.1406L39.5567 50.3296L40.7795 50.1629L40.5785 48.9452L39.3945 49.1406ZM31.832 50.1719L30.6447 50.3456L30.8167 51.5214L31.9942 51.3609L31.832 50.1719ZM28.8242 44.6719L28.0706 45.6057L28.0785 45.6121L28.8242 44.6719ZM12.9258 51.2891L13.8818 50.5638L13.8757 50.5557L13.8694 50.5477L12.9258 51.2891ZM15.8906 53.3516L15.4409 54.4641L15.4573 54.4707L15.4738 54.4769L15.8906 53.3516ZM22.7227 55.3281L22.4069 56.4859L22.4131 56.4875L22.7227 55.3281ZM34.1523 58.9375L33.6691 60.0359L33.6778 60.0397L33.6867 60.0435L34.1523 58.9375ZM38.8359 76.8984L37.8356 76.2357L37.8336 76.2387L38.8359 76.8984ZM32.3477 82.1836L32.8257 83.2843L32.835 83.2802L32.3477 82.1836ZM9.14453 80.3359L8.39701 81.2747L8.40124 81.278L9.14453 80.3359ZM3.40131 70.5643L11.0498 69.3612L10.6768 66.9904L3.02837 68.1935L3.40131 70.5643ZM9.6749 68.3424C10.1364 71.6344 11.4363 74.2793 13.6588 76.1423L15.2006 74.303C13.5273 72.9004 12.4495 70.8474 12.0517 68.0092L9.6749 68.3424ZM13.6654 76.1478C15.9254 78.0148 18.9811 78.8719 22.6797 78.8719V76.4719C19.3314 76.4719 16.8871 75.6962 15.1939 74.2975L13.6654 76.1478ZM22.6797 78.8719C26.3572 78.8719 29.3248 78.1365 31.3542 76.4453L29.8177 74.6016C28.4096 75.775 26.1063 76.4719 22.6797 76.4719V78.8719ZM31.3631 76.4378C33.303 74.7889 34.3641 72.7676 34.3641 70.4102H31.9641C31.9641 71.9486 31.3064 73.3361 29.8088 74.6091L31.3631 76.4378ZM34.3641 70.4102C34.3641 68.2401 33.3859 66.4975 31.548 65.2838L30.2254 67.2865C31.424 68.078 31.9641 69.0854 31.9641 70.4102H34.3641ZM31.5397 65.2784C30.8712 64.8447 29.8203 64.4153 28.4928 63.9752C27.1363 63.5255 25.3934 63.034 23.2734 62.5004L22.6876 64.8278C24.7784 65.354 26.4588 65.8293 27.7376 66.2533C29.0455 66.6869 29.8424 67.0381 30.2337 67.2919L31.5397 65.2784ZM23.2743 62.5006C17.6024 61.0683 13.7638 59.8595 11.6723 58.8817L10.6558 61.0558C12.9758 62.1405 17.0148 63.3953 22.6867 64.8275L23.2743 62.5006ZM11.6893 58.8898C9.68965 57.9163 8.20988 56.6131 7.19729 54.9929L5.16209 56.2649C6.44116 58.3114 8.28431 59.9014 10.6388 61.0477L11.6893 58.8898ZM7.20868 55.0115C6.20675 53.3416 5.70391 51.5079 5.70391 49.4844H3.30391C3.30391 51.9296 3.91825 54.1922 5.1507 56.2463L7.20868 55.0115ZM5.70391 49.4844C5.70391 47.6385 6.1179 45.9574 6.93773 44.4202L4.82008 43.2908C3.80658 45.1911 3.30391 47.2625 3.30391 49.4844H5.70391ZM6.93436 44.4265C7.79347 42.8384 8.94627 41.5309 10.4006 40.4921L9.00564 38.5391C7.25165 39.792 5.85497 41.3777 4.82345 43.2845L6.93436 44.4265ZM10.4157 40.4811C11.4674 39.7049 12.9564 39.0111 14.9376 38.4333L14.2656 36.1292C12.1217 36.7545 10.3451 37.5503 8.9905 38.5501L10.4157 40.4811ZM14.9478 38.4302C16.9172 37.8367 19.034 37.5359 21.3047 37.5359V35.1359C18.8201 35.1359 16.4682 35.4654 14.2553 36.1323L14.9478 38.4302ZM21.3047 37.5359C24.7729 37.5359 27.7586 38.0356 30.2857 39.0034L31.144 36.7622C28.2856 35.6675 24.9979 35.1359 21.3047 35.1359V37.5359ZM30.2896 39.0049C32.8621 39.9798 34.6458 41.2645 35.7593 42.7986L37.7016 41.3889C36.237 39.3709 34.0102 37.8483 31.1401 36.7607L30.2896 39.0049ZM35.7648 42.8061C36.907 44.3544 37.7434 46.5059 38.2105 49.336L40.5785 48.9452C40.0717 45.8744 39.1321 43.3279 37.6961 41.3814L35.7648 42.8061ZM39.2324 47.9516L31.6699 48.9829L31.9942 51.3609L39.5567 50.3296L39.2324 47.9516ZM33.0194 49.9981C32.6371 47.3859 31.5001 45.2625 29.5699 43.7317L28.0785 45.6121C29.4713 46.7166 30.3395 48.2599 30.6447 50.3456L33.0194 49.9981ZM29.5778 43.738C27.6561 42.1871 25.0293 41.4953 21.8633 41.4953V43.8953C24.7129 43.8953 26.7267 44.5212 28.0706 45.6057L29.5778 43.738ZM21.8633 41.4953C18.2424 41.4953 15.3675 42.0815 13.5236 43.5079L14.9921 45.4062C16.1846 44.4836 18.38 43.8953 21.8633 43.8953V41.4953ZM13.5236 43.5079C11.7829 44.8544 10.7805 46.5534 10.7805 48.582H13.1805C13.1805 47.4597 13.6963 46.4086 14.9921 45.4062L13.5236 43.5079ZM10.7805 48.582C10.7805 49.8585 11.189 51.0209 11.9822 52.0304L13.8694 50.5477C13.4021 49.953 13.1805 49.3107 13.1805 48.582H10.7805ZM11.9698 52.0143C12.7723 53.0722 13.9691 53.8691 15.4409 54.4641L16.3404 52.239C15.1194 51.7454 14.3397 51.1673 13.8818 50.5638L11.9698 52.0143ZM15.4738 54.4769C16.3097 54.7864 18.6507 55.4614 22.4069 56.4858L23.0384 54.1704C19.2322 53.1323 17.0184 52.4896 16.3074 52.2263L15.4738 54.4769ZM22.4131 56.4875C27.8846 57.9485 31.614 59.1316 33.6691 60.0359L34.6356 57.8391C32.3939 56.8527 28.5034 55.6296 23.0322 54.1687L22.4131 56.4875ZM33.6867 60.0435C35.674 60.8802 37.1896 62.0889 38.2796 63.6604L40.2517 62.2927C38.8781 60.3121 36.9849 58.8281 34.618 57.8315L33.6867 60.0435ZM38.2796 63.6604C39.344 65.1952 39.9133 67.1484 39.9133 69.5938H42.3133C42.3133 66.7683 41.6508 64.31 40.2517 62.2927L38.2796 63.6604ZM39.9133 69.5938C39.9133 71.9203 39.2327 74.1269 37.8356 76.2357L39.8363 77.5612C41.4757 75.0867 42.3133 72.4235 42.3133 69.5938H39.9133ZM37.8336 76.2387C36.4879 78.283 34.5176 79.906 31.8603 81.087L32.835 83.2802C35.8496 81.9404 38.2048 80.0399 39.8383 77.5582L37.8336 76.2387ZM31.8696 81.0829C29.2065 82.2396 26.1647 82.8313 22.7227 82.8313V85.2312C26.4421 85.2312 29.8169 84.5911 32.8257 83.2843L31.8696 81.0829ZM22.7227 82.8313C16.9358 82.8313 12.7167 81.6258 9.88782 79.3939L8.40124 81.278C11.8172 83.9731 16.6502 85.2312 22.7227 85.2312V82.8313ZM9.89204 79.3972C7.07872 77.157 5.21757 73.7953 4.39637 69.1692L2.03332 69.5886C2.93086 74.6448 5.02284 78.5878 8.39702 81.2747L9.89204 79.3972ZM68.1953 76.082L69.3796 75.8884L69.1898 74.7278L68.0256 74.8941L68.1953 76.082ZM69.3125 82.9141L69.5597 84.0883L70.6818 83.8521L70.4968 82.7204L69.3125 82.9141ZM53.6719 78.7891L52.57 79.2644L52.5735 79.2723L53.6719 78.7891ZM52.7266 43.3828H53.9266V42.1828H52.7266V43.3828ZM47.0547 43.3828H45.8547V44.5828H47.0547V43.3828ZM47.0547 37.3672V36.1672H45.8547V37.3672H47.0547ZM52.7266 37.3672V38.5672H53.9266V37.3672H52.7266ZM52.7266 26.0664L52.1066 25.0389L51.5266 25.3889V26.0664H52.7266ZM60.418 21.4258H61.618V19.3003L59.798 20.3983L60.418 21.4258ZM60.418 37.3672H59.218V38.5672H60.418V37.3672ZM68.1953 37.3672H69.3953V36.1672H68.1953V37.3672ZM68.1953 43.3828V44.5828H69.3953V43.3828H68.1953ZM60.418 43.3828V42.1828H59.218V43.3828H60.418ZM60.8047 74.3203L59.694 74.7747L59.7027 74.796L59.7122 74.8169L60.8047 74.3203ZM62.1367 75.8242L61.5051 76.8445L61.5156 76.851L61.5262 76.8573L62.1367 75.8242ZM67.011 76.2757L68.1282 83.1077L70.4968 82.7204L69.3796 75.8884L67.011 76.2757ZM69.0653 81.7398C66.9471 82.1857 65.0843 82.4016 63.4688 82.4016V84.8016C65.2907 84.8016 67.3237 84.5591 69.5597 84.0883L69.0653 81.7398ZM63.4688 82.4016C60.7619 82.4016 58.8243 81.969 57.5349 81.2288L56.3401 83.3102C58.1445 84.3461 60.561 84.8016 63.4688 84.8016V82.4016ZM57.5349 81.2288C56.1779 80.4498 55.2832 79.4715 54.7703 78.3058L52.5735 79.2723C53.321 80.9712 54.6034 82.3132 56.3401 83.3102L57.5349 81.2288ZM54.7737 78.3138C54.5331 77.756 54.3109 76.7766 54.1565 75.282C54.0048 73.8126 53.9266 71.9344 53.9266 69.6367H51.5266C51.5266 71.9796 51.6059 73.9472 51.7692 75.5286C51.93 77.0848 52.1804 78.3612 52.57 79.2644L54.7737 78.3138ZM53.9266 69.6367V43.3828H51.5266V69.6367H53.9266ZM52.7266 42.1828H47.0547V44.5828H52.7266V42.1828ZM48.2547 43.3828V37.3672H45.8547V43.3828H48.2547ZM47.0547 38.5672H52.7266V36.1672H47.0547V38.5672ZM53.9266 37.3672V26.0664H51.5266V37.3672H53.9266ZM53.3465 27.0939L61.0379 22.4533L59.798 20.3983L52.1066 25.0389L53.3465 27.0939ZM59.218 21.4258V37.3672H61.618V21.4258H59.218ZM60.418 38.5672H68.1953V36.1672H60.418V38.5672ZM66.9953 37.3672V43.3828H69.3953V37.3672H66.9953ZM68.1953 42.1828H60.418V44.5828H68.1953V42.1828ZM59.218 43.3828V70.0664H61.618V43.3828H59.218ZM59.218 70.0664C59.218 71.1882 59.2506 72.1338 59.3196 72.8928C59.3857 73.6204 59.4933 74.284 59.694 74.7747L61.9153 73.866C61.8583 73.7264 61.7725 73.3659 61.7097 72.6755C61.6498 72.0166 61.618 71.1503 61.618 70.0664H59.218ZM59.7122 74.8169C60.0993 75.6685 60.7062 76.35 61.5051 76.8445L62.7683 74.8039C62.3641 74.5537 62.083 74.2326 61.8971 73.8237L59.7122 74.8169ZM61.5262 76.8573C62.4178 77.3841 63.5509 77.5828 64.8008 77.5828V75.1828C63.759 75.1828 63.1161 75.0091 62.7472 74.7911L61.5262 76.8573ZM64.8008 77.5828C65.7415 77.5828 66.9362 77.4741 68.365 77.27L68.0256 74.8941C66.6471 75.091 65.5788 75.1828 64.8008 75.1828V77.5828Z" fill="#FF8577"/>
</svg>
